<svg width="15" height="15" viewBox="0 0 15 15" fill="none" xmlns="http://www.w3.org/2000/svg">
<g opacity="0.3" clip-path="url(#clip0_58830_163)">
<path d="M8.83837 7.5L14.9023 1.43638C15.0328 1.3057 15.0328 1.09396 14.9023 0.963277L14.0375 0.097971C13.9747 0.035396 13.8894 0 13.8008 0C13.712 0 13.6268 0.035396 13.564 0.097971L7.50027 6.16175L1.4365 0.097971C1.31087 -0.0276531 1.08854 -0.0274951 0.963233 0.097971L0.0985599 0.963277C-0.0321209 1.09396 -0.0321209 1.3057 0.0985599 1.43638L6.16234 7.5L0.0985599 13.5636C-0.0321209 13.6943 -0.0321209 13.906 0.0985599 14.0367L0.963391 14.902C1.02612 14.9646 1.1113 15 1.2001 15C1.28891 15 1.37392 14.9646 1.43665 14.902L7.50043 8.83825L13.5642 14.902C13.6269 14.9646 13.7123 15 13.8009 15C13.8896 15 13.9749 14.9646 14.0376 14.902L14.9025 14.0367C15.033 13.906 15.033 13.6943 14.9025 13.5636L8.83837 7.5Z" fill="black"/>
</g>
<defs>
<clipPath id="clip0_58830_163">
<rect width="15" height="15" fill="white"/>
</clipPath>
</defs>
</svg>
