<svg width="137" height="27" viewBox="0 0 137 27" fill="none" xmlns="http://www.w3.org/2000/svg">
<path d="M11.6914 19.2324C11.6914 18.7988 11.6504 18.4121 11.5684 18.0723C11.4863 17.7207 11.3281 17.3984 11.0938 17.1055C10.8594 16.8008 10.5078 16.4961 10.0391 16.1914C9.57031 15.8867 8.95508 15.5703 8.19336 15.2422C7.25586 14.8555 6.3418 14.4336 5.45117 13.9766C4.57227 13.5078 3.78125 12.9688 3.07812 12.3594C2.375 11.7383 1.8125 11.0117 1.39062 10.1797C0.96875 9.33594 0.757812 8.35156 0.757812 7.22656C0.757812 6.13672 0.962891 5.15234 1.37305 4.27344C1.7832 3.38281 2.35742 2.62695 3.0957 2.00586C3.83398 1.37305 4.70703 0.892578 5.71484 0.564453C6.72266 0.224609 7.83008 0.0546875 9.03711 0.0546875C10.666 0.0546875 12.0898 0.388672 13.3086 1.05664C14.5273 1.71289 15.4766 2.63867 16.1562 3.83398C16.8359 5.01758 17.1758 6.40039 17.1758 7.98242H11.6211C11.6211 7.29102 11.5273 6.6875 11.3398 6.17188C11.1523 5.64453 10.8594 5.23438 10.4609 4.94141C10.0742 4.63672 9.56445 4.48438 8.93164 4.48438C8.3457 4.48438 7.85938 4.60742 7.47266 4.85352C7.08594 5.09961 6.79883 5.43359 6.61133 5.85547C6.42383 6.27734 6.33008 6.74609 6.33008 7.26172C6.33008 7.67187 6.42383 8.03516 6.61133 8.35156C6.81055 8.66797 7.07422 8.96094 7.40234 9.23047C7.74219 9.5 8.14062 9.75781 8.59766 10.0039C9.06641 10.25 9.57031 10.4844 10.1094 10.707C11.2578 11.1641 12.2773 11.6621 13.168 12.2012C14.0703 12.7402 14.8203 13.3496 15.418 14.0293C16.0273 14.6973 16.4844 15.459 16.7891 16.3145C17.1055 17.1582 17.2637 18.1191 17.2637 19.1973C17.2637 20.2988 17.0762 21.2949 16.7012 22.1855C16.3262 23.0645 15.7871 23.8145 15.084 24.4355C14.3926 25.0566 13.5488 25.5312 12.5527 25.8594C11.5566 26.1875 10.4434 26.3516 9.21289 26.3516C8.05273 26.3516 6.93359 26.1875 5.85547 25.8594C4.77734 25.5195 3.81641 25.0039 2.97266 24.3125C2.14062 23.6211 1.47852 22.7363 0.986328 21.6582C0.494141 20.5801 0.248047 19.2969 0.248047 17.8086H5.83789C5.83789 18.5703 5.90234 19.2207 6.03125 19.7598C6.17188 20.2871 6.38281 20.709 6.66406 21.0254C6.95703 21.3418 7.31445 21.5762 7.73633 21.7285C8.16992 21.8691 8.68555 21.9395 9.2832 21.9395C9.89258 21.9395 10.373 21.8164 10.7246 21.5703C11.0762 21.3242 11.3223 21.002 11.4629 20.6035C11.6152 20.1934 11.6914 19.7363 11.6914 19.2324ZM26.1055 0.40625V26H20.5156V0.40625H26.1055ZM38.7969 0.40625L30.6055 13.2559L25.5781 19.584L24.5234 14.1699L27.6699 8.61523L31.9766 0.40625H38.7969ZM32.2051 26L27.0898 14.3633L31.3262 10.918L38.7969 26H32.2051ZM44.8789 0.40625L48.4648 11.7266L52.0508 0.40625H58.0801L51.2949 16.7539V26H45.6523V16.7539L38.8672 0.40625H44.8789ZM60.2598 0.40625H68.75C70.4609 0.40625 71.9316 0.699219 73.1621 1.28516C74.3926 1.87109 75.3359 2.73828 75.9922 3.88672C76.6602 5.03516 76.9941 6.45312 76.9941 8.14062C76.9941 9.57031 76.8066 10.7773 76.4316 11.7617C76.0566 12.7344 75.5293 13.543 74.8496 14.1875C74.1699 14.832 73.3672 15.3535 72.4414 15.752L70.666 16.7891H63.8984L63.8809 12.2715H68.6094C69.2422 12.2715 69.7637 12.125 70.1738 11.832C70.584 11.5391 70.8887 11.123 71.0879 10.584C71.2988 10.0332 71.4043 9.38281 71.4043 8.63281C71.4043 7.85938 71.3047 7.19727 71.1055 6.64648C70.918 6.0957 70.6309 5.67383 70.2441 5.38086C69.8691 5.08789 69.3711 4.94141 68.75 4.94141H65.8496V26H60.2598V0.40625ZM71.7559 26L67.1328 14.627L73.0039 14.6094L77.7324 25.7363V26H71.7559ZM95.3281 21.4824V26H84.166V21.4824H95.3281ZM86.0117 0.40625V26H80.4219V0.40625H86.0117ZM93.8516 10.6719V15.0312H84.166V10.6719H93.8516ZM95.3281 0.40625V4.94141H84.166V0.40625H95.3281ZM116.193 0.40625V26H110.727L103.484 10.0742V26H98.0352V0.40625H103.502L110.762 16.4199V0.40625H116.193ZM130.168 0.40625V26H124.596V0.40625H130.168ZM136.443 0.40625V4.94141H118.461V0.40625H136.443Z" fill="black" fill-opacity="0.8"/>
</svg>
